<svg xmlns="http://www.w3.org/2000/svg" width="500" height="500" viewBox="0 0 100 100"><defs><mask id="a"><rect width="100" height="100" fill="#fff" rx="12"/><path d="M22 18h10q2.4 0 2.4 2.4v36.8q0 2.4 2.4 2.4h5.6q2.4 0 2.4-2.4V20.4q0-2.4 2.4-2.4h5.6q2.4 0 2.4 2.4v36.8q0 2.4 2.4 2.4h5.6q2.4 0 2.4-2.4V20.4q0-2.4 2.4-2.4h10q6.4 0 4.8 8l-7.2 49.6Q74 82 67.6 82h-6V59.6h-2.4V82H40.8V59.6h-2.4V82h-6q-6.4 0-8-6.4L17.2 26q-1.6-8 4.8-8Z"/></mask></defs><rect width="100" height="100" fill="currentColor" mask="url(#a)" rx="12"/></svg>