<svg xmlns="http://www.w3.org/2000/svg" width="500" height="500" viewBox="0 0 100 100"><defs><mask id="a"><circle cx="50" cy="50" r="50" fill="#fff"/><path d="M23.75 22.5h9.375q2.25 0 2.25 2.25v34.5q0 2.25 2.25 2.25h5.25q2.25 0 2.25-2.25v-34.5q0-2.25 2.25-2.25h5.25q2.25 0 2.25 2.25v34.5q0 2.25 2.25 2.25h5.25q2.25 0 2.25-2.25v-34.5q0-2.25 2.25-2.25h9.375q6 0 4.5 7.5L74 76.5q-1.5 6-7.5 6h-5.625v-21h-2.25v21h-17.25v-21h-2.25v21H33.5q-6 0-7.5-6L19.25 30q-1.5-7.5 4.5-7.5Z"/></mask></defs><circle cx="50" cy="50" r="50" fill="currentColor" mask="url(#a)"/></svg>