<svg xmlns="http://www.w3.org/2000/svg" viewBox="-10 0 1001 1000"><path fill="currentColor" d="M758 739c27-5 40-20 40-84 0-54-14-88-29-116-7 1-72 11-72 120 0 46 23 81 53 81 3 0 6 0 8-1zM522 527c-26 0-44 32-44 90 0 13 1 27 3 42 3-3 31-32 54-57 12-13 17-28 17-41 0-19-11-34-30-34zm-352-79c0 54-41 98-82 98S0 523 0 448s90-193 244-193c17 0 35 2 54 5 111 20 152 89 152 143 0 28-11 52-28 64-14 10-30 15-46 15-34 0-70-20-92-65-3-7-7-15-7-22 0-1-1-1 0-2 0-6 2-11 7-15 4-3 7-4 11-4 9 0 18 9 24 15 7 6 25 23 44 23 6 0 12-2 18-7 4-3 6-9 6-16 0-25-25-67-89-84-2 2-17 14-30 43-10 20-23 44-22 63 0 7 1 13 5 19 15 21 56 79 61 85 2 4 23 36 23 69 0 8-2 15-5 22-15 37-50 63-54 66 1 0 11-3 43 31 14 15 37 29 56 29 6 0 11-1 16-4 22-13 31-25 32-26-5-16-7-35-7-56 0-74 31-163 110-163 40 0 74 32 74 74 0 26-13 55-45 83-40 34-61 53-63 55 1 5 12 51 54 51 40 0 78-34 86-44-1-7-1-16-1-28 0-52 15-142 113-176-4-7-45-69-176-119-7-3-15-5-22-8-2-1-19-8-20-22v-3c2-8 8-10 15-10h4c7 0 14 2 21 3 64 12 287 83 311 289 0 8 1 16 1 24 0 71-36 136-100 153-8 2-16 3-24 3-47 0-94-34-109-74-8 7-71 73-131 73-51 0-79-67-82-74-44 37-66 74-100 74-30 0-43-8-62-34-11-15-22-41-39-41-21 0-36 28-48 40-14 16-41 38-63 38-11 0-20-5-27-18-3-7-4-13-4-19 0-37 60-63 71-70 15-10 49-28 83-57 18-16 26-30 26-43 0-10-4-19-10-27-16-22-53-65-70-90-6-9-9-19-9-30 0-23 10-43 11-45 15-39 48-98 56-112h-6c-22 0-94 7-143 75-20 26-27 50-27 68 0 20 10 34 22 35 2 1 4 1 6 1 14 0 25-10 30-32 4-19 14-25 22-24h2c10 0 17 8 17 26zm769 344c-23 0-41-20-41-46s18-47 41-47 42 21 42 47-19 46-42 46z"/></svg>